# xmcd
#
# Track frame offsets:
#	150
#	12392
#	24611
#	33249
#	45956
#	55728
#	61893
#	74222
#	78336
#	87267
#	98771
#	109701
#	126943
#	141470
#	159212
#	182665
#	216188
#	235472
#	256556
#	289446
#	306012
#	327122
#
# Disc length: 4520 seconds
#
# Revision: 0
# Processed by: cddbd v1.5.1PL2 Copyright (c) Steve Scherf et al.
# Submitted via: dBpowerAMP V4.0
#
DISCID=3111a616
DTITLE=V/A - Cunt Records 2
DYEAR=1900
DGENRE=Terror
TTITLE0=Coffieecore Drinking Non-stop Coffiee - Intro
TTITLE1=Coffieecore Drinking Non-stop Coffiee - So Many People, So Little Coffiee
TTITLE2=Coffieecore Drinking Non-stop Coffiee - Learn 2 Drink It
TTITLE3=Coffieecore Drinking Non-stop Coffiee - Acid In My Cup
TTITLE4=Coffieecore Drinking Non-stop Coffiee - 2 D Bridge
TTITLE5=Coffieecore Drinking Non-stop Coffiee - Just Say Yes
TTITLE6=Coffieecore Drinking Non-stop Coffiee - The Core Of Coffiee
TTITLE7=Coffieecore Drinking Non-stop Coffiee - Caffeine
TTITLE8=Coffieecore Drinking Non-stop Coffiee - Brrr. Eache
TTITLE9=Coffieecore Drinking Non-stop Coffiee - Cappachino Maffia
TTITLE10=Coffieecore Drinking Non-stop Coffiee - Black Gold
TTITLE11=Coffieecore Drinking Non-stop Coffiee - Coffiee Vs. Dead Bull 1-0
TTITLE12=Coffieecore Drinking Non-stop Coffiee Coffiee Vs. Dead Bull 2-0
TTITLE13=Noisekick L.egal W.arstarting D.estruction - Make My Day (Feat. Mike M From Eastside Terror)
TTITLE14=Noisekick L.egal W.arstarting D.estruction - Only DJ Noisekick Will Survive
TTITLE15=Noisekick L.egal W.arstarting D.estruction - Shit From The Underground
TTITLE16=Noisekick L.egal W.arstarting D.estruction - Watching TV
TTITLE17=Noisekick L.egal W.arstarting D.estruction - Terreur Boven Alles
TTITLE18=Noisekick L.egal W.arstarting D.estruction - The All Crushing Terror
TTITLE19=Noisekick L.egal W.arstarting D.estruction - Dark Power
TTITLE20=Noisekick L.egal W.arstarting D.estruction - Speedtrauma
TTITLE21=Noisekick L.egal W.arstarting D.estruction - Holland Is Godverdomme Het Hardste!!!
EXTD=
EXTT0=
EXTT1=
EXTT2=
EXTT3=
EXTT4=
EXTT5=
EXTT6=
EXTT7=
EXTT8=
EXTT9=
EXTT10=
EXTT11=
EXTT12=
EXTT13=
EXTT14=
EXTT15=
EXTT16=
EXTT17=
EXTT18=
EXTT19=
EXTT20=
EXTT21=
PLAYORDER=
